<?xml version="1.0" encoding="UTF-8" standalone="no" ?>
<!DOCTYPE svg PUBLIC "-//W3C//DTD SVG 1.1//EN" "http://www.w3.org/Graphics/SVG/1.1/DTD/svg11.dtd">
<svg xmlns="http://www.w3.org/2000/svg" xmlns:xlink="http://www.w3.org/1999/xlink" version="1.1" width="1080" height="1080" viewBox="0 0 1080 1080" xml:space="preserve">
<desc>Created with Fabric.js 5.2.4</desc>
<defs>
</defs>
<rect x="0" y="0" width="100%" height="100%" fill="transparent"></rect>
<g transform="matrix(1 0 0 1 540 540)" id="af9c0169-7c2a-4e50-b160-fd4751e628fc"  >
<rect style="stroke: none; stroke-width: 1; stroke-dasharray: none; stroke-linecap: butt; stroke-dashoffset: 0; stroke-linejoin: miter; stroke-miterlimit: 4; fill: rgb(255,255,255); fill-rule: nonzero; opacity: 1; visibility: hidden;" vector-effect="non-scaling-stroke"  x="-540" y="-540" rx="0" ry="0" width="1080" height="1080" />
</g>
<g transform="matrix(1 0 0 1 540 540)" id="c274185d-c206-4cae-9538-772591d30d7c"  >
</g>
<g transform="matrix(1.99 0 0 1.99 540 540)" id="6622d88a-2fcb-4314-b20f-bfedb1ae502c"  >
<path style="stroke: rgb(0,0,0); stroke-width: 0; stroke-dasharray: none; stroke-linecap: butt; stroke-dashoffset: 0; stroke-linejoin: miter; stroke-miterlimit: 4; fill: rgb(255,255,255); fill-rule: nonzero; opacity: 1;" vector-effect="non-scaling-stroke"  transform=" translate(-255.97, -256)" d="M 256 32 C 114.6 32 0 125.1 0 240 C 0 287.6 19.9 331.2 52.9 366.3 C 38 405.7 7 439.1 6.5 439.5 C -0.09999999999999964 446.5 -1.9000000000000004 456.7 1.9000000000000004 465.5 C 5.700000000000001 474.3 14.4 480 24 480 C 85.5 480 134 454.3 163.1 433.7 C 192 442.8 223.2 448 256 448 C 397.4 448 512 354.9 512 240 C 512 125.10000000000002 397.4 32 256 32 z M 256 400 C 229.3 400 202.9 395.9 177.6 387.9 L 154.9 380.7 L 135.4 394.5 C 121.10000000000001 404.6 101.5 415.9 77.9 423.5 C 85.2 411.4 92.30000000000001 397.8 97.80000000000001 383.3 L 108.4 355.2 L 87.80000000000001 333.4 C 69.70000000000002 314.09999999999997 48.000000000000014 282.2 48.000000000000014 239.99999999999997 C 48.000000000000014 151.79999999999995 141.3 79.99999999999997 256 79.99999999999997 C 370.7 79.99999999999997 464 151.79999999999995 464 239.99999999999997 C 464 328.2 370.7 400 256 400 z" stroke-linecap="round" />
</g>
</svg>